<?xml version="1.0" standalone="no"?>
<!DOCTYPE svg PUBLIC "-//W3C//DTD SVG 20010904//EN"
 "http://www.w3.org/TR/2001/REC-SVG-20010904/DTD/svg10.dtd">
<svg version="1.0" xmlns="http://www.w3.org/2000/svg"
 width="1891.000000pt" height="1732.000000pt" viewBox="0 0 1891.000000 1732.000000"
 preserveAspectRatio="xMidYMid meet">
<metadata>
Created by potrace 1.16, written by Peter Selinger 2001-2019
</metadata>
<g transform="translate(0.000000,1732.000000) scale(0.100000,-0.100000)"
fill="#000000" stroke="none">
<path d="M10407 16964 c-434 -78 -758 -405 -862 -869 -25 -111 -31 -371 -11
-478 94 -499 454 -811 961 -834 332 -15 577 106 803 395 74 95 75 77 -9 144
l-35 27 -109 -107 c-129 -127 -212 -186 -309 -220 -100 -35 -284 -37 -401 -4
-415 119 -574 500 -453 1087 42 203 122 374 232 492 109 117 244 173 417 173
99 0 204 -23 289 -64 89 -42 196 -148 242 -241 41 -80 85 -215 96 -289 7 -49
8 -51 44 -57 27 -4 45 -1 66 13 28 17 30 22 35 111 12 173 30 638 25 642 -3 3
-32 8 -65 11 l-60 7 -26 -56 c-35 -77 -55 -86 -115 -51 -108 63 -211 114 -272
134 -140 48 -333 61 -483 34z"/>
<path d="M7500 16790 c-96 -26 -321 -87 -500 -135 -179 -47 -397 -106 -485
-130 -88 -24 -206 -56 -262 -71 -57 -15 -103 -32 -103 -38 0 -34 24 -88 45
-102 22 -14 31 -14 100 1 104 23 138 16 169 -38 29 -50 44 -104 221 -782 75
-286 147 -560 160 -610 13 -49 28 -116 34 -148 19 -105 -16 -147 -156 -189
-40 -11 -73 -26 -73 -32 0 -34 24 -86 45 -100 23 -15 42 -11 417 89 216 58
555 149 753 202 198 53 363 99 366 102 4 3 14 112 23 241 9 129 18 255 21 281
5 41 2 47 -24 66 -24 19 -34 20 -68 11 l-40 -10 -28 -105 c-30 -111 -77 -221
-120 -277 -33 -44 -93 -83 -164 -108 -89 -31 -493 -138 -521 -138 -54 0 -50
-8 -170 450 -39 146 -73 274 -76 286 -5 19 6 24 153 64 264 72 315 82 370 78
77 -7 99 -27 150 -136 25 -54 46 -98 47 -99 6 -7 126 32 126 41 0 10 -30 126
-147 573 -33 124 -41 143 -65 157 -23 14 -33 15 -73 4 l-46 -12 8 -46 c13 -76
9 -172 -10 -207 -11 -21 -36 -42 -67 -58 -51 -26 -489 -149 -498 -141 -10 11
-179 671 -173 677 14 15 551 152 612 157 38 2 81 -1 102 -7 48 -16 99 -76 144
-166 22 -45 44 -75 53 -75 42 0 86 21 98 47 11 24 5 49 -54 238 -36 115 -68
218 -70 228 -7 24 -27 22 -224 -33z"/>
<path d="M12223 16628 c-20 -9 -62 -94 -52 -101 2 -2 39 -18 82 -37 162 -69
164 -103 29 -445 -50 -126 -143 -363 -207 -525 -64 -162 -141 -358 -172 -435
-30 -77 -70 -172 -89 -210 -52 -108 -100 -126 -220 -84 -82 29 -107 22 -130
-36 -9 -25 -15 -47 -12 -50 2 -2 299 -124 659 -270 360 -146 693 -282 742
-302 78 -32 89 -34 100 -20 6 8 92 115 190 236 159 196 178 224 173 248 -4 17
-21 37 -40 50 -31 20 -35 21 -48 6 -35 -43 -183 -163 -235 -190 -32 -17 -86
-37 -120 -44 -85 -18 -165 1 -396 92 -202 80 -287 119 -306 143 -26 31 -5 108
107 391 343 868 426 1074 453 1116 46 73 105 81 250 34 74 -23 104 -16 124 31
8 20 15 42 15 49 0 7 -64 38 -142 70 -79 32 -269 110 -423 173 -154 63 -287
116 -295 118 -8 2 -25 -2 -37 -8z"/>
<path d="M4930 15734 c-8 -3 -44 -14 -80 -26 -108 -34 -266 -119 -650 -350
-201 -121 -369 -223 -373 -227 -11 -11 31 -79 53 -86 11 -3 45 8 85 30 69 36
136 46 175 25 30 -16 97 -117 242 -365 74 -126 218 -372 320 -545 268 -457
268 -456 284 -503 29 -81 -6 -145 -117 -212 l-59 -36 23 -39 c12 -21 31 -41
42 -44 19 -5 111 47 638 366 l147 90 -17 30 c-10 17 -28 37 -40 45 -20 13 -27
12 -89 -23 -52 -29 -79 -38 -116 -38 -68 0 -100 33 -207 216 -26 46 -94 162
-151 258 -56 96 -98 176 -92 178 6 2 37 20 69 41 l58 38 510 -224 c281 -123
520 -226 531 -229 16 -4 86 33 265 141 134 81 245 148 247 150 4 3 -49 95 -55
95 -2 0 -44 -14 -91 -31 -73 -27 -101 -32 -177 -32 -116 0 -182 21 -493 159
-130 58 -284 126 -342 151 -58 25 -106 47 -107 47 -1 1 23 32 53 70 100 125
144 238 144 370 -1 100 -12 153 -52 234 -65 132 -184 229 -328 267 -51 14
-216 19 -250 9z m57 -300 c73 -35 144 -109 186 -193 30 -61 32 -73 32 -166 0
-92 -3 -106 -32 -167 -46 -98 -152 -203 -275 -273 l-41 -23 -95 161 c-231 393
-292 500 -292 507 0 11 116 101 170 133 109 63 241 71 347 21z"/>
<path d="M14341 15611 c-27 -38 -26 -48 7 -69 89 -56 142 -121 142 -176 0 -15
-11 -49 -25 -77 -37 -72 -810 -1234 -862 -1296 -67 -78 -126 -82 -232 -13 -66
43 -88 40 -119 -13 -20 -34 -38 -17 203 -181 88 -60 237 -162 332 -227 95 -66
181 -119 191 -119 16 0 41 25 65 67 4 7 -8 20 -30 34 -84 52 -143 126 -143
179 0 11 11 43 25 71 29 56 807 1228 858 1291 69 86 140 90 251 14 52 -35 70
-33 103 10 l27 37 -24 19 c-14 11 -177 123 -363 249 -209 142 -347 229 -362
229 -15 0 -31 -11 -44 -29z"/>
<path d="M15592 14795 l-33 -27 36 -43 c69 -85 99 -186 89 -306 l-7 -79 -191
-172 c-105 -95 -265 -241 -356 -323 -607 -552 -610 -555 -676 -555 -44 0 -111
38 -150 86 -41 50 -61 54 -93 20 l-23 -24 54 -59 c29 -33 135 -152 236 -266
101 -114 189 -207 195 -207 13 1 57 35 57 44 0 3 -22 33 -49 67 -87 108 -87
167 0 261 55 59 941 859 946 854 2 -2 -18 -149 -46 -327 -249 -1610 -261
-1690 -251 -1709 6 -11 18 -24 28 -29 20 -11 0 -27 587 504 164 149 326 295
360 325 34 30 126 114 206 186 79 71 168 149 197 172 101 79 159 75 258 -20
65 -63 79 -65 114 -23 11 13 4 25 -47 83 -320 365 -417 472 -428 472 -6 0 -22
-11 -35 -25 l-23 -24 29 -36 c88 -109 104 -152 79 -212 -21 -51 -52 -82 -404
-402 -456 -413 -533 -482 -538 -477 -3 3 61 425 142 939 l148 935 -104 119
c-126 143 -170 192 -229 256 l-46 49 -32 -27z"/>
<path d="M9380 14723 c-582 -10 -1194 -98 -1735 -249 -226 -63 -568 -180 -700
-239 -17 -8 -44 -19 -60 -25 -103 -38 -128 -61 -77 -68 12 -2 20 -6 18 -10 -6
-10 -85 -9 1271 -11 798 -1 1224 -5 1228 -12 4 -5 1 -8 -5 -7 -7 2 -14 -4 -15
-13 -2 -13 4 -16 34 -13 29 3 32 2 15 -5 -12 -5 -25 -14 -29 -20 -3 -6 -11
-11 -16 -11 -6 0 -7 5 -3 12 4 7 3 8 -5 4 -6 -4 -9 -11 -6 -16 3 -5 -4 -14
-15 -20 -12 -6 -20 -7 -20 -1 0 5 6 11 13 14 6 3 3 5 -8 4 -13 -1 -21 -8 -21
-18 0 -10 4 -16 7 -13 4 2 10 0 14 -6 3 -5 3 -10 -2 -10 -28 0 -95 -162 -107
-260 -12 -92 28 -233 89 -313 l34 -44 -47 -303 -47 -304 -35 -8 c-316 -76
-542 -228 -737 -496 -190 -260 -286 -597 -269 -937 21 -395 156 -698 432 -970
l102 -101 -47 -18 c-25 -11 -94 -45 -154 -77 -348 -187 -662 -503 -829 -834
-103 -203 -182 -464 -195 -640 -4 -57 -9 -81 -13 -65 -4 14 -5 -22 -4 -80 2
-74 0 -93 -6 -65 -7 35 -7 33 -4 -17 2 -32 0 -68 -5 -81 -5 -13 -6 -30 -1 -37
5 -7 4 -24 -1 -37 -5 -14 -5 -23 1 -23 6 0 10 -4 10 -10 0 -18 -22 -10 -27 10
-3 11 -9 17 -14 14 -5 -3 -9 12 -9 33 l0 39 -40 -4 c-22 -2 -40 -6 -40 -9 0
-3 14 -18 30 -33 17 -15 30 -31 30 -34 0 -3 -20 -6 -45 -6 -38 0 -50 5 -75 33
l-29 32 -7 -32 c-5 -23 -12 -33 -25 -33 -17 0 -18 5 -13 40 6 38 6 40 -21 40
-26 0 -27 -2 -23 -40 2 -28 0 -40 -9 -40 -7 0 -14 8 -14 18 -1 9 -5 4 -9 -13
-6 -24 -8 -26 -9 -7 -1 24 -16 30 -25 10 -3 -7 -4 7 -1 32 4 32 2 39 -4 25 -7
-15 -10 -6 -10 37 -1 31 4 59 9 61 6 3 5 4 -2 3 -7 -1 -15 -13 -19 -27 -6 -23
-3 82 6 165 3 29 1 36 -6 25 -24 -32 12 276 46 401 8 30 15 58 15 63 0 13 -61
8 -276 -22 -287 -41 -768 -107 -949 -131 -82 -11 -177 -25 -210 -30 -33 -5
-145 -21 -250 -35 -104 -14 -242 -33 -305 -41 -63 -9 -238 -33 -388 -55 -150
-21 -276 -38 -280 -37 -4 1 -38 -4 -77 -10 -188 -31 -521 -73 -549 -68 -24 5
-26 4 -11 -3 17 -8 15 -10 -15 -12 -48 -3 -77 -6 -130 -15 -25 -4 -71 -7 -103
-7 -31 -1 -52 -4 -46 -7 12 -8 -168 -29 -251 -30 -25 0 -31 -3 -21 -9 10 -6 2
-9 -25 -8 -40 1 -88 -6 -206 -28 l-68 -13 -1 27 c-1 25 -2 25 -8 -4 -4 -22
-13 -31 -31 -34 -21 -3 -18 -6 20 -17 25 -8 59 -14 75 -14 21 0 26 -3 17 -9
-21 -13 50 -23 105 -15 31 4 44 3 39 -4 -4 -6 2 -8 14 -5 11 3 27 0 35 -7 8
-6 19 -9 24 -6 6 4 59 1 118 -6 94 -11 103 -14 68 -20 -26 -4 -13 -5 35 -3 47
2 64 1 45 -4 -28 -7 -27 -8 20 -15 80 -12 83 -14 25 -16 -35 -2 -13 -6 62 -10
64 -4 123 -12 130 -18 7 -6 38 -10 68 -10 101 0 123 -2 117 -8 -6 -7 -109 -14
-184 -13 -24 0 -43 -5 -43 -11 0 -7 -110 -10 -335 -10 l-335 0 0 40 c0 22 -4
40 -10 40 -5 0 -10 -18 -10 -40 0 -22 -4 -40 -10 -40 -5 0 -10 23 -10 50 0 28
-4 50 -9 50 -15 0 -19 -21 -15 -80 6 -84 -5 -46 -15 55 -8 74 -9 57 -5 -95 5
-172 18 -351 29 -410 l5 -25 1673 2 c919 2 1945 4 2280 5 334 2 607 1 607 -2
0 -3 12 -7 27 -8 14 -1 27 -3 29 -5 1 -1 28 -54 59 -117 102 -205 214 -361
369 -515 82 -81 222 -200 260 -222 13 -7 11 -22 -15 -103 -16 -52 -37 -149
-46 -215 -9 -66 -18 -122 -20 -124 -1 -2 -39 20 -83 48 -273 173 -528 419
-700 674 -25 36 -48 65 -52 64 -6 -2 -245 -300 -741 -927 -72 -91 -163 -205
-202 -255 -39 -49 -262 -331 -495 -625 -233 -294 -494 -623 -579 -730 -172
-217 -243 -306 -415 -523 -65 -82 -107 -143 -94 -136 13 7 187 127 388 267
201 140 473 330 605 422 132 92 413 288 625 436 359 249 480 334 702 488 271
188 753 524 882 614 115 81 150 101 157 91 5 -8 9 -18 9 -24 1 -80 47 -329 69
-380 5 -11 17 -40 26 -65 46 -125 163 -302 288 -436 80 -86 239 -213 368 -294
l96 -59 11 -78 c15 -102 343 -2202 381 -2443 17 -102 37 -232 46 -290 27 -176
68 -201 95 -58 19 100 39 326 50 569 8 174 20 296 40 424 16 99 50 315 75 480
67 442 116 739 121 744 2 2 18 -27 35 -64 118 -261 100 -551 -50 -795 -28 -46
-29 -49 -36 -248 l-8 -202 22 0 c53 0 219 135 335 274 116 138 210 310 263
483 26 84 27 97 27 293 -1 188 -3 213 -26 301 -56 208 -153 365 -335 545
l-122 120 34 215 c83 515 125 792 122 795 -2 2 -19 -1 -38 -6 -41 -11 -260
-46 -346 -55 l-63 -6 0 209 0 209 73 7 c311 30 658 156 932 339 301 201 508
435 682 772 40 77 73 136 73 130 0 -6 76 -10 208 -10 193 0 210 2 256 23 27
12 55 22 63 22 8 0 12 4 9 9 -4 5 1 8 10 7 18 -3 92 20 109 34 9 7 129 26 525
80 85 12 263 37 395 55 222 32 426 60 1190 166 160 22 369 51 465 64 96 14
324 45 505 70 182 25 393 54 470 65 77 11 190 27 250 35 61 9 139 21 175 27
96 17 117 13 -490 97 -296 42 -521 73 -1020 141 -162 22 -338 47 -390 55 -111
17 -1026 144 -1625 226 -126 17 -318 43 -425 59 -107 15 -198 24 -202 21 -4
-3 4 -59 17 -123 13 -65 28 -157 34 -205 12 -105 14 -437 1 -408 -6 16 -9 13
-12 -20 -4 -36 -5 -34 -6 14 -1 30 -5 51 -9 48 -4 -4 -6 -30 -4 -57 2 -39 -1
-50 -14 -50 -11 0 -15 11 -15 40 0 22 -4 40 -10 40 -5 0 -10 -18 -10 -40 l0
-40 -98 0 -98 0 4 40 c3 32 1 40 -12 40 -12 0 -16 -10 -16 -41 0 -36 -2 -40
-22 -37 -12 2 -23 10 -25 18 -4 13 -3 13 6 0 7 -11 9 -5 8 23 -2 29 -6 37 -21
37 -16 0 -18 -6 -13 -40 3 -23 1 -38 -4 -34 -5 3 -9 16 -9 30 0 14 -7 48 -16
75 -13 39 -16 73 -11 142 3 53 2 83 -3 72 -6 -15 -9 -6 -9 30 -3 213 -137 621
-265 808 -14 21 -26 40 -26 42 0 15 -133 186 -202 260 -266 285 -586 479 -972
590 -48 14 -93 25 -100 25 -6 0 -90 45 -186 101 -96 56 -243 138 -326 183 -82
46 -179 101 -214 124 l-63 40 74 6 c231 18 224 18 306 -26 41 -22 81 -37 89
-34 8 3 14 19 14 36 0 16 3 30 8 30 35 0 275 -34 347 -49 50 -10 91 -17 93
-16 3 3 -32 228 -133 865 -14 85 -27 166 -30 180 l-5 25 18 -25 c191 -271 306
-385 482 -478 148 -79 233 -86 292 -25 43 45 60 99 65 208 11 206 -53 490
-143 636 -35 56 -96 100 -240 174 -87 44 -164 93 -225 143 -147 118 -310 217
-347 210 -9 -2 -19 -14 -23 -28 l-7 -25 -1 25 c0 14 -24 173 -52 354 l-51 328
54 57 c67 69 81 92 108 170 49 147 6 355 -93 452 -14 12 -23 28 -20 34 2 7 -3
18 -12 25 -10 8 -15 9 -15 1 0 -6 5 -11 10 -11 6 0 10 -5 10 -11 0 -5 -15 1
-33 15 -19 15 -39 26 -45 26 -7 0 -12 5 -12 11 0 6 -6 9 -13 6 -7 -3 -24 2
-38 10 -13 8 -17 12 -8 9 9 -2 22 1 28 7 8 8 11 8 11 -1 0 -7 14 -12 33 -13
27 0 29 -2 12 -9 -18 -8 -18 -9 -2 -9 10 -1 21 7 24 16 6 15 7 15 14 -3 6 -16
8 -16 8 -2 1 16 77 17 1207 18 674 0 1213 4 1222 9 9 5 26 5 40 0 13 -5 33 -7
46 -3 14 3 35 -4 59 -20 38 -26 57 -32 57 -18 0 9 -144 78 -182 87 -16 4 -28
11 -28 16 0 5 -5 9 -10 9 -6 0 -84 29 -173 64 -608 240 -1222 379 -1942 442
-107 9 -511 20 -655 17z m222 -639 c76 -19 122 -48 181 -113 65 -73 90 -143
95 -266 3 -84 0 -109 -18 -157 -29 -77 -77 -146 -131 -186 -24 -18 -52 -40
-62 -48 -16 -13 -17 -83 -17 -1275 0 -694 -2 -1264 -4 -1266 -8 -8 -226 112
-238 131 -4 6 -8 550 -8 1208 l0 1197 -26 18 c-111 76 -175 173 -194 296 -25
160 49 345 167 418 40 25 136 58 172 58 13 1 50 -6 83 -15z m-400 -1623 l0
-284 -58 -30 c-72 -38 -206 -170 -253 -250 -81 -137 -123 -345 -102 -511 38
-314 207 -505 666 -756 256 -140 544 -309 675 -396 442 -293 658 -577 741
-974 18 -86 22 -138 22 -290 0 -281 -38 -453 -148 -675 -143 -290 -372 -522
-747 -758 -76 -48 -142 -87 -148 -87 -7 0 -10 126 -10 389 l0 390 51 58 c130
148 209 287 249 437 25 95 30 278 9 371 -29 137 -95 257 -197 363 -100 103
-233 192 -537 357 -480 261 -625 357 -824 550 -214 207 -345 441 -403 722 -18
90 -22 141 -22 308 -1 128 4 225 13 270 89 462 360 828 740 999 80 36 242 86
269 83 11 -2 14 -58 14 -286z m828 101 c30 -19 96 -67 145 -106 114 -91 145
-111 278 -176 140 -68 191 -117 237 -225 72 -173 104 -344 98 -531 -4 -146
-22 -199 -81 -234 -53 -33 -92 -26 -227 37 -189 88 -332 233 -530 534 l-100
153 0 323 0 323 63 -31 c34 -18 87 -47 117 -67z m-962 -534 c-4 -29 -40 -255
-79 -503 -39 -247 -72 -451 -73 -453 -7 -6 -59 105 -82 175 -24 70 -27 93 -27
233 -1 134 2 165 22 230 39 128 97 227 185 318 27 28 53 52 57 52 3 0 2 -24
-3 -52z m458 -2515 c63 -36 117 -70 120 -75 10 -15 12 -348 11 -1613 -1 -1316
-5 -2116 -10 -2122 -4 -3 -198 114 -229 139 -15 12 -17 54 -19 448 -4 787 1
3290 6 3290 3 0 58 -30 121 -67z m-314 -2025 c0 -194 0 -362 -1 -373 0 -11
-11 -28 -24 -38 -180 -146 -263 -235 -320 -345 -62 -121 -81 -198 -81 -342 1
-211 102 -399 309 -575 57 -48 152 -113 490 -333 212 -139 349 -248 500 -398
168 -168 265 -329 315 -523 28 -109 42 -311 30 -424 -32 -309 -228 -639 -499
-843 -48 -35 -93 -64 -101 -64 -13 0 -15 25 -12 183 l3 182 34 55 c74 124 105
213 126 362 36 253 -77 539 -298 748 -140 134 -285 233 -548 375 -428 231
-707 508 -835 830 -50 125 -75 243 -97 456 -11 112 33 371 87 510 135 345 365
593 790 851 52 32 103 58 113 58 16 0 17 -24 19 -352z m-288 -833 c68 -21 243
-53 351 -65 65 -7 93 -14 103 -27 8 -12 12 -71 12 -206 l0 -190 -97 7 c-113 8
-263 29 -354 50 -35 9 -65 13 -67 11 -2 -2 1 -36 8 -75 7 -39 10 -73 7 -76 -9
-9 -68 148 -79 210 -20 116 -9 243 28 337 18 44 20 45 88 24z m528 -1964 c49
-37 114 -97 162 -150 l38 -43 -6 -382 c-4 -209 -9 -392 -11 -406 -2 -14 -7
-133 -10 -265 -16 -665 -62 -1224 -99 -1212 -21 7 -46 209 -66 527 -5 91 -12
203 -15 250 -9 150 -25 662 -35 1125 -12 544 -12 585 -2 585 4 0 24 -13 44
-29z"/>
<path d="M10394 12116 c-3 -9 3 -30 14 -48 11 -18 37 -89 57 -158 21 -69 45
-138 53 -153 41 -69 112 -29 112 63 0 108 -81 235 -182 286 -41 21 -49 22 -54
10z m69 -40 c68 -44 90 -69 122 -139 36 -78 39 -158 7 -190 l-23 -22 -24 27
c-23 27 -30 45 -80 213 -15 50 -33 97 -40 105 -18 22 -27 40 -20 40 3 0 29
-15 58 -34z"/>
<path d="M3330 14619 c-19 -17 -159 -154 -311 -305 l-276 -273 25 -25 25 -25
54 49 c59 54 135 86 183 75 44 -10 93 -58 549 -534 658 -687 641 -668 641
-742 0 -54 -23 -100 -78 -156 -46 -48 -48 -63 -9 -87 18 -12 -3 -31 457 422
148 145 173 174 164 189 -24 38 -39 37 -85 -7 -85 -82 -172 -101 -241 -54 -21
15 -172 167 -336 338 -163 171 -342 358 -397 416 -290 302 -343 359 -372 404
-56 84 -42 156 46 249 l51 54 -23 21 c-13 12 -25 22 -28 22 -2 0 -20 -14 -39
-31z"/>
<path d="M2224 13522 c-10 -7 -358 -593 -369 -623 -7 -18 62 -59 85 -51 8 3
38 29 65 59 55 58 82 65 135 38 45 -23 74 -74 259 -442 l171 -343 -42 0 c-24
0 -74 -3 -113 -5 -186 -13 -652 -26 -693 -20 -58 8 -80 24 -92 64 -10 37 2 87
38 154 14 26 23 48 21 50 -32 23 -63 37 -83 37 -21 0 -51 -46 -250 -385 -124
-211 -226 -386 -226 -389 0 -7 66 -46 78 -46 6 0 34 20 62 45 78 69 138 95
244 105 50 5 323 19 606 31 l515 21 220 -132 c258 -155 310 -192 331 -233 26
-49 10 -117 -50 -214 l-26 -41 37 -22 c28 -17 44 -20 61 -14 18 7 83 109 243
382 120 205 219 377 219 381 0 16 -68 50 -88 44 -11 -3 -37 -31 -57 -64 -63
-103 -123 -125 -215 -80 -25 13 -152 86 -283 164 l-238 142 -231 465 c-126
256 -239 486 -249 512 -43 109 -43 259 1 330 26 43 26 45 -12 68 -35 21 -56
25 -74 12z"/>
<path d="M5132 12473 c182 -230 359 -452 392 -494 34 -41 150 -188 258 -325
108 -137 339 -429 513 -649 174 -220 369 -467 433 -548 64 -82 173 -220 242
-306 69 -87 181 -228 249 -315 68 -86 126 -156 130 -156 4 0 33 37 63 83 186
273 477 542 771 711 26 15 47 30 47 34 -1 4 -58 46 -128 94 -126 86 -805 557
-1417 983 -88 62 -344 240 -570 397 -225 157 -502 349 -615 428 -483 337 -690
480 -695 480 -2 0 145 -188 327 -417z"/>
<path d="M13935 12721 c-132 -92 -388 -271 -570 -397 -181 -127 -352 -246
-380 -265 -44 -31 -267 -186 -545 -379 -52 -36 -178 -124 -280 -195 -102 -71
-228 -159 -280 -195 -52 -36 -270 -187 -483 -335 -213 -149 -444 -308 -512
-355 -69 -47 -125 -88 -125 -91 0 -4 49 -37 110 -75 277 -171 556 -439 725
-696 21 -32 41 -58 45 -58 4 0 29 28 56 63 26 34 116 148 199 252 272 342 698
881 788 997 53 68 382 483 652 823 83 105 220 278 305 385 85 107 243 306 352
443 108 136 194 247 190 246 -4 0 -115 -75 -247 -168z"/>
<path d="M17364 12504 l-31 -16 33 -77 c46 -104 47 -167 2 -211 -20 -21 -265
-149 -723 -377 -604 -302 -699 -347 -747 -351 -50 -4 -58 -2 -86 24 -17 16
-46 56 -64 88 -40 72 -60 81 -114 52 l-41 -21 71 -145 c39 -81 127 -262 196
-403 138 -284 138 -285 211 -252 21 10 39 20 39 22 0 2 -14 32 -32 66 -27 51
-32 74 -33 130 0 65 2 70 30 94 17 13 341 180 721 370 602 302 698 347 746
351 50 4 58 2 90 -27 19 -16 49 -57 66 -89 37 -70 58 -79 113 -50 21 11 39 21
39 23 0 2 -268 551 -363 745 -28 57 -36 65 -62 67 -16 1 -44 -5 -61 -13z"/>
<path d="M17111 10810 c-130 -27 -210 -55 -322 -111 -251 -128 -447 -366 -516
-627 -21 -80 -26 -121 -27 -232 -2 -373 137 -666 404 -847 78 -53 293 -153
329 -153 9 0 57 118 50 124 -2 1 -42 22 -89 45 -254 127 -375 258 -432 468
-16 60 -21 107 -21 208 0 115 3 140 27 213 35 108 112 220 196 289 116 95 301
172 496 208 135 25 389 31 494 11 211 -39 350 -130 443 -287 56 -96 78 -176
84 -309 6 -131 -8 -203 -59 -304 -44 -88 -169 -208 -290 -281 -103 -60 -114
-76 -88 -125 25 -47 33 -46 388 45 185 47 342 88 348 90 8 2 8 21 1 63 l-9 60
-51 6 c-107 15 -115 32 -80 173 24 94 27 127 27 258 0 130 -4 163 -27 250 -64
239 -210 453 -400 589 -90 64 -238 132 -354 163 -136 36 -382 42 -522 13z"/>
<path d="M2827 10741 c-35 -111 -97 -158 -264 -200 -43 -11 -482 -102 -975
-202 l-897 -183 -6 -35 c-3 -20 -8 -44 -11 -53 -3 -12 14 -29 58 -61 91 -63
453 -315 1003 -697 493 -342 543 -378 608 -439 55 -51 69 -85 76 -176 l6 -79
38 -8 c29 -6 46 -4 67 8 26 16 29 26 89 333 34 174 64 323 67 333 4 13 -6 19
-46 27 -83 18 -84 17 -104 -46 -27 -84 -54 -132 -81 -145 -21 -10 -34 -7 -83
18 -46 24 -319 209 -343 233 -4 3 25 166 65 361 l71 355 185 37 c216 43 277
46 311 19 22 -18 24 -26 22 -110 l-2 -91 27 -6 c15 -3 33 -8 40 -10 8 -2 26 3
42 13 28 16 29 23 105 407 42 215 79 401 81 412 5 19 0 23 -46 33 -82 18 -83
17 -103 -48z m-923 -967 c-29 -147 -55 -269 -58 -272 -3 -2 -34 15 -68 39 -35
24 -163 114 -286 199 -122 85 -222 157 -222 160 0 5 631 137 666 139 20 1 19
-6 -32 -265z"/>
<path d="M11590 7243 c-186 -276 -451 -525 -747 -704 -83 -50 -85 -53 -66 -68
16 -14 316 -223 731 -511 60 -41 186 -129 281 -195 181 -127 237 -165 526
-367 258 -179 1366 -951 1453 -1012 41 -28 99 -69 130 -91 123 -88 284 -196
287 -193 1 2 -34 49 -79 104 -44 56 -171 215 -281 354 -110 139 -254 321 -321
404 -66 83 -268 338 -449 566 -180 228 -405 512 -500 630 -193 243 -250 315
-823 1040 -46 58 -87 106 -90 107 -4 1 -27 -28 -52 -64z"/>
<path d="M18641 6833 c-124 -531 -342 -1127 -608 -1666 -46 -92 -83 -172 -83
-176 0 -5 -4 -11 -8 -13 -4 -1 -38 -59 -76 -128 -123 -224 -379 -639 -457
-740 -11 -14 -35 -47 -53 -75 -18 -27 -52 -73 -75 -102 -22 -29 -41 -57 -41
-63 0 -5 -4 -10 -8 -10 -5 0 -24 -21 -43 -47 -86 -120 -340 -428 -464 -562
-485 -526 -892 -889 -1440 -1287 -173 -125 -261 -185 -480 -324 -55 -35 -116
-73 -135 -86 -112 -72 -472 -270 -670 -369 -436 -218 -778 -361 -1240 -520
-335 -114 -499 -163 -830 -245 -580 -143 -1136 -229 -1790 -277 -424 -30
-1162 -22 -1585 18 -260 24 -648 71 -740 90 -27 5 -124 23 -215 39 -288 50
-728 154 -1054 249 -60 17 -110 30 -112 28 -9 -8 362 -116 548 -160 27 -6 48
-15 48 -20 0 -4 4 -6 9 -2 9 5 193 -33 266 -54 17 -5 73 -17 125 -26 52 -9
130 -25 173 -36 43 -10 125 -24 183 -30 58 -7 100 -15 93 -19 -6 -5 10 -8 37
-7 27 0 92 -8 144 -18 52 -10 115 -19 140 -21 94 -6 229 -22 238 -28 5 -3 49
-8 98 -10 49 -3 132 -10 184 -15 294 -32 838 -45 1155 -29 317 16 481 27 495
32 8 3 56 8 105 11 130 7 225 17 225 24 0 3 30 7 68 8 37 1 112 9 167 18 120
20 277 44 325 50 49 6 151 25 244 46 44 9 86 15 94 12 8 -3 17 -1 21 4 3 6 49
18 101 28 52 9 110 23 129 31 18 8 45 14 60 14 15 0 31 4 37 9 5 5 27 11 49
14 22 3 74 14 115 26 41 12 91 24 110 27 19 2 41 11 50 18 8 8 26 14 40 14 23
0 70 13 175 47 22 8 87 28 145 46 58 17 106 36 108 40 2 5 14 9 27 9 13 0 58
13 100 29 42 16 90 33 107 36 23 6 27 9 17 17 -10 7 -9 8 6 4 11 -3 53 8 94
24 40 17 79 30 87 30 8 0 14 4 14 9 0 4 12 7 28 4 23 -3 24 -2 7 6 -18 9 -18
10 6 10 14 1 29 5 35 10 5 5 25 14 46 20 20 7 39 18 42 26 3 8 11 15 18 15 9
0 8 -3 -2 -10 -9 -6 -10 -10 -3 -10 13 0 192 77 208 90 6 4 46 23 90 41 44 18
83 37 86 42 3 5 9 8 13 8 3 -1 36 12 72 29 36 16 69 30 74 30 5 0 12 4 15 10
4 6 -1 7 -12 4 -15 -5 -15 -4 -3 5 8 5 25 8 37 4 13 -3 23 -1 23 4 0 8 69 43
115 58 16 5 17 8 5 16 -12 8 -10 10 8 6 12 -3 22 -1 22 4 0 5 7 9 15 9 8 0 15
4 15 10 0 5 6 7 13 5 6 -3 25 6 41 20 16 14 37 25 48 25 10 0 18 5 18 10 0 6
6 10 14 10 7 0 29 10 47 23 19 13 41 21 48 19 8 -3 11 0 7 6 -3 6 4 14 16 18
13 4 25 9 28 13 3 3 34 21 70 40 36 19 79 43 95 53 17 10 38 21 48 24 9 4 17
10 17 15 0 5 4 9 9 9 14 0 91 52 91 61 0 5 7 5 17 2 9 -4 14 -2 10 3 -3 5 9
16 26 24 18 7 46 24 63 37 17 13 36 23 42 23 7 0 12 3 12 8 0 4 23 21 51 37
81 48 82 48 124 80 22 17 41 33 43 38 2 4 10 7 18 7 8 0 14 3 14 8 0 4 16 16
35 26 19 11 35 22 35 26 0 4 27 24 60 45 59 37 76 53 43 40 -14 -5 -15 -3 -7
5 9 9 17 9 33 0 12 -6 20 -7 19 -3 -3 10 33 53 45 53 14 0 36 27 29 35 -4 5
-2 5 5 2 6 -4 18 0 26 8 9 8 20 15 26 15 6 0 18 11 27 25 9 14 20 22 25 19 6
-3 27 13 48 35 21 23 41 41 45 41 5 0 13 6 74 57 15 13 31 23 36 23 5 0 6 3 3
7 -7 6 21 30 36 31 12 1 47 43 42 52 -2 3 6 6 18 6 15 -1 21 4 19 15 -1 9 4
16 12 16 27 0 75 47 70 68 -4 15 -3 17 4 6 8 -11 16 -8 41 18 17 17 31 29 31
26 0 -3 24 19 54 49 42 43 56 52 66 43 10 -10 12 -8 7 6 -4 11 -1 17 9 17 8 0
12 5 9 10 -3 6 -2 10 3 10 5 0 12 9 15 20 3 11 11 20 19 20 10 0 9 -3 -2 -11
-13 -9 -13 -10 0 -6 8 2 14 12 12 22 -3 13 1 16 13 11 9 -3 13 -2 10 3 -3 5 3
12 14 16 10 3 18 13 17 22 0 9 6 18 14 20 13 4 13 3 0 -6 -8 -6 -10 -11 -5
-11 6 0 18 9 28 20 9 11 14 20 10 20 -3 0 4 9 17 20 13 11 28 20 33 20 6 0 8
2 5 5 -3 3 19 31 48 62 30 31 54 61 54 66 0 5 7 4 15 -3 13 -11 14 -10 9 5 -5
13 -4 16 5 11 7 -5 10 -2 9 5 -2 7 4 13 12 14 9 0 14 8 12 19 -3 13 1 17 12
13 11 -4 13 -1 9 10 -4 11 -2 14 5 9 7 -4 12 -2 12 4 0 6 4 8 10 5 6 -4 7 1 3
11 -4 11 -3 15 4 11 13 -8 76 67 66 77 -4 4 0 4 10 0 9 -3 17 -2 17 3 0 9 64
86 113 136 15 16 27 35 27 43 0 8 6 13 13 11 6 -1 11 6 11 16 -1 9 4 17 11 17
8 0 17 9 20 21 4 13 12 18 21 15 8 -3 13 -2 10 3 -3 4 8 21 25 37 16 15 27 34
24 42 -2 7 -1 11 4 8 12 -8 34 21 26 34 -4 6 -3 9 2 8 14 -4 53 22 53 35 0 7
-4 6 -10 -3 -7 -10 -10 -11 -10 -2 0 7 6 15 14 18 8 3 38 37 67 75 29 38 57
69 61 69 4 0 8 5 8 12 0 6 11 26 25 44 14 18 25 37 25 43 0 6 5 11 11 11 5 0
8 4 5 9 -3 5 2 15 11 22 12 10 14 10 9 2 -4 -7 -5 -13 -2 -13 2 0 15 17 27 38
13 20 30 44 38 52 9 8 17 22 19 30 2 8 13 23 25 33 12 10 15 16 7 12 -8 -4 -3
3 12 15 15 11 25 27 22 34 -3 8 4 16 15 19 13 3 19 11 16 19 -5 13 2 25 54 89
12 16 21 36 17 44 -3 8 0 17 6 21 6 4 8 3 4 -4 -3 -6 -3 -13 2 -16 4 -2 9 7
10 22 1 14 7 31 14 37 8 7 9 5 5 -8 -4 -11 -3 -16 3 -12 6 3 7 18 4 33 -4 19
-3 23 4 13 12 -16 27 3 16 21 -5 7 -3 8 6 3 10 -6 12 -4 6 11 -4 10 -4 15 0
12 9 -10 34 17 34 37 0 9 4 14 9 11 5 -4 7 4 3 16 -5 20 -3 21 10 11 15 -13
28 -8 28 11 0 6 -5 4 -10 -4 -7 -11 -8 -7 -6 15 2 17 8 31 15 31 6 1 15 2 20
3 5 0 12 8 15 17 3 9 2 12 -5 8 -6 -3 -4 7 5 24 8 16 12 33 8 38 -4 5 2 2 12
-6 18 -14 19 -14 7 7 -10 20 -9 22 5 16 14 -5 16 -2 12 14 -3 12 -1 27 4 34 8
11 8 10 4 -4 -3 -11 -2 -16 4 -12 6 3 10 13 10 21 0 8 4 13 9 10 12 -8 22 20
14 41 -4 9 -2 14 3 11 5 -3 18 6 28 20 11 14 15 22 9 19 -6 -4 -14 0 -17 9 -3
8 -2 13 3 9 5 -3 19 7 30 22 11 16 26 34 32 42 9 10 9 15 -1 21 -9 5 -9 9 -1
14 6 4 11 4 11 0 0 -4 7 1 15 12 8 10 14 24 15 29 0 6 -5 3 -10 -5 -5 -8 -10
-10 -10 -5 0 13 20 43 20 30 0 -19 70 126 70 146 0 10 5 19 11 19 5 0 19 19
30 43 11 23 24 49 29 57 5 8 11 27 14 42 4 15 12 33 20 40 7 8 17 25 21 38 4
14 18 49 31 77 13 29 21 60 17 70 -5 12 -2 15 9 10 12 -4 14 -1 10 15 -3 14
-1 19 6 14 8 -5 10 -1 5 10 -5 13 -3 15 8 9 8 -4 11 -5 7 0 -4 4 1 24 11 44
10 20 16 42 14 49 -3 6 -1 12 4 12 8 0 29 47 38 87 8 33 36 108 46 119 5 7 9
16 8 20 -1 5 3 23 10 39 27 66 43 111 47 140 2 17 11 35 20 42 8 6 15 14 14
17 -1 4 8 47 20 96 14 56 26 87 33 83 6 -3 7 -1 3 5 -8 13 3 64 13 58 4 -3 8
3 9 12 5 50 15 92 21 92 3 0 7 14 8 32 1 17 7 34 13 38 6 4 8 15 4 25 -5 13
-4 16 4 11 8 -5 10 -2 6 8 -3 8 1 30 10 47 9 18 16 40 16 50 0 9 11 66 25 125
14 59 24 111 23 116 -2 6 -14 -34 -27 -89z"/>
<path d="M9165 3159 c-109 -43 -351 -111 -440 -124 -164 -23 -167 -24 -163
-48 3 -19 12 -23 63 -29 71 -9 364 -1 438 13 29 5 81 14 117 19 36 6 71 16 77
23 10 9 11 34 7 90 -8 88 -11 90 -99 56z m82 -63 c3 -42 0 -66 -7 -71 -49 -30
-459 -64 -595 -50 -65 7 -91 25 -36 25 34 0 206 33 306 60 75 19 280 87 305
100 21 12 23 8 27 -64z"/>
<path d="M6177 1774 c-12 -12 -8 -34 6 -34 8 0 22 -9 31 -19 17 -18 14 -28
-64 -228 -45 -114 -90 -216 -99 -226 -14 -14 -23 -16 -45 -8 -21 9 -28 8 -33
-5 -3 -8 -4 -16 -2 -18 4 -3 183 -82 366 -160 l82 -35 45 81 c25 44 46 84 46
89 0 23 -25 17 -60 -15 -46 -42 -75 -51 -136 -42 -59 8 -104 32 -104 56 0 32
62 180 76 180 29 0 47 -47 39 -106 -6 -50 -5 -55 11 -52 26 5 132 274 115 291
-10 9 -15 8 -25 -8 -26 -44 -65 -75 -95 -75 -17 0 -31 3 -31 8 0 4 16 48 36
99 35 91 35 92 62 82 96 -37 136 -86 130 -162 -5 -71 22 -53 61 41 19 45 32
84 30 85 -3 2 -395 171 -425 183 -5 3 -13 1 -17 -2z"/>
<path d="M12780 1644 c-105 -28 -169 -80 -191 -154 -9 -30 -8 -43 4 -67 28
-53 101 -67 141 -27 60 59 3 166 -73 137 -29 -10 -30 -10 -21 8 14 25 62 49
100 49 45 0 85 -44 105 -115 23 -77 15 -133 -26 -198 -63 -99 -89 -158 -89
-203 0 -50 8 -54 45 -20 26 24 104 50 187 61 70 10 121 58 142 133 26 93 18
180 -10 113 -11 -26 -25 -33 -136 -69 -68 -22 -112 -32 -98 -23 147 98 196
160 188 241 -7 66 -43 113 -105 134 -56 19 -91 19 -163 0z"/>
<path d="M12037 1343 c-45 -42 -83 -82 -85 -89 -5 -22 15 -25 47 -7 22 13 33
15 41 7 16 -16 120 -382 114 -398 -3 -8 -19 -20 -35 -26 -17 -8 -29 -20 -29
-31 0 -11 3 -19 7 -19 10 0 287 91 292 97 11 9 -22 27 -51 27 -42 1 -42 2
-125 284 -43 149 -72 232 -80 232 -8 0 -50 -35 -96 -77z"/>
<path d="M7170 1358 c-61 -32 -83 -66 -88 -136 -5 -73 15 -117 88 -187 69 -66
110 -123 110 -152 0 -63 -92 -85 -150 -37 -42 36 -59 73 -67 144 -9 92 -31 78
-65 -40 -15 -52 -27 -103 -27 -112 -1 -20 21 -23 47 -7 15 10 28 5 71 -24 113
-78 244 -55 299 53 44 88 25 148 -81 259 -114 117 -126 142 -87 181 62 62 170
-27 170 -140 0 -33 3 -40 19 -40 19 0 34 36 55 135 4 17 9 38 12 48 4 12 0 17
-15 17 -12 0 -21 -4 -21 -10 0 -18 -27 -10 -65 20 -67 53 -136 63 -205 28z"/>
<path d="M11240 1189 c-44 -9 -105 -73 -119 -125 -37 -133 16 -355 102 -431
93 -82 209 -52 254 66 25 65 23 195 -5 286 -47 155 -128 226 -232 204z m50
-70 c20 -36 72 -321 74 -399 1 -63 -2 -75 -16 -78 -9 -2 -24 7 -32 20 -26 40
-96 427 -83 461 9 24 44 21 57 -4z"/>
<path d="M7975 1168 c-4 -13 -25 -139 -25 -150 0 -3 6 -8 14 -11 9 -4 25 12
45 44 30 48 31 49 81 49 33 0 50 -4 50 -12 0 -25 -70 -450 -76 -459 -3 -5 -20
-9 -39 -9 -32 0 -55 -23 -34 -35 14 -9 283 -54 292 -48 17 10 5 32 -23 42 -24
8 -30 16 -30 38 0 45 62 437 71 447 10 12 51 0 78 -21 12 -10 27 -40 34 -68
19 -79 39 -67 55 33 8 46 12 85 10 87 -4 4 -466 85 -486 85 -7 0 -14 -6 -17
-12z"/>
<path d="M10394 1064 c-5 -1 -21 -5 -36 -8 -57 -13 -128 -105 -128 -166 0 -20
33 -37 38 -20 2 6 14 23 26 37 32 37 81 36 114 -2 22 -26 24 -36 20 -90 -6
-68 -32 -126 -115 -254 -49 -76 -63 -118 -38 -115 6 1 79 7 164 15 87 7 155
17 157 23 11 31 19 167 10 176 -16 16 -23 12 -36 -20 -12 -30 -12 -30 -127
-43 -18 -2 -33 -2 -33 0 0 2 20 29 44 60 93 120 130 225 106 297 -20 62 -112
122 -166 110z"/>
<path d="M8924 600 c-55 -22 -70 -90 -29 -134 47 -51 135 -17 135 53 0 54 -60
100 -106 81z"/>
</g>
</svg>
